<svg width="400" height="400" viewBox="0 0 400 400" xmlns="http://www.w3.org/2000/svg"><circle cx="200" cy="200" r="200" fill="#861F41"/><circle cx="200" cy="160" r="60" fill="#E5E5E5"/><rect x="140" y="220" width="120" height="140" rx="20" fill="#E5E5E5"/><circle cx="180" cy="150" r="8" fill="#861F41"/><circle cx="220" cy="150" r="8" fill="#861F41"/><path d="M170 140 Q180 135 190 140" stroke="#861F41" stroke-width="3" fill="none"/><path d="M210 140 Q220 135 230 140" stroke="#861F41" stroke-width="3" fill="none"/><path d="M200 155 Q195 165 200 170" stroke="#861F41" stroke-width="2" fill="none"/><path d="M185 175 Q200 185 215 175" stroke="#861F41" stroke-width="2" fill="none"/><path d="M140 120 Q200 100 260 120 Q250 140 200 130 Q150 140 140 120" fill="#2C2C2C"/><circle cx="180" cy="150" r="15" stroke="#861F41" stroke-width="3" fill="none"/><circle cx="220" cy="150" r="15" stroke="#861F41" stroke-width="3" fill="none"/><path d="M195 150 L205 150" stroke="#861F41" stroke-width="3"/><path d="M160 220 Q200 210 240 220" stroke="#861F41" stroke-width="3" fill="none"/><path d="M200 220 L190 280 L200 290 L210 280 Z" fill="#861F41"/><rect x="150" y="100" width="100" height="15" rx="5" fill="#861F41"/><path d="M150 100 L200 80 L250 100" stroke="#861F41" stroke-width="3" fill="none"/><rect x="195" y="80" width="10" height="20" fill="#861F41"/><text x="200" y="380" text-anchor="middle" font-family="Arial, sans-serif" font-size="16" font-weight="bold" fill="#FFFFFF">Yuyue Wang</text></svg>
